<svg xmlns="http://www.w3.org/2000/svg" version="1.1" xmlns:xlink="http://www.w3.org/1999/xlink" xmlns:svgjs="http://svgjs.dev/svgjs" viewBox="0 0 7.872309975150981 6.674267148535792"><g transform="matrix(0.8462920761983885,0,0,0.8462920761983885,1.1179620840509554,4.6252122821132025)"><g transform="matrix(1,0,0,1,0,0)" clip-path="url(#SvgjsClipPath21947)"><g clip-path="url(#SvgjsClipPath21945a8d24450-54ce-4ca2-82b5-ca7bc0ef7ae6)"><path d=" M 5.789464141254314 -0.990742267023283 L 2.879767633460804 -0.990742267023283 C 2.836642227503969 -0.990742267023283 2.799435994913759 -1.016955749075477 2.7842152633995814 -1.056698770251384 L 1.688322594378835 -4.051800493763332 L 1.219862302220275 -4.051800493763332 C 1.1648985495301911 -4.051800493763332 1.11923635498766 -4.097462688305863 1.11923635498766 -4.152426440995947 C 1.11923635498766 -4.207390193686031 1.1648985495301911 -4.253052388228562 1.219862302220275 -4.253052388228562 L 1.7593526747783277 -4.253052388228562 C 1.8024780807351624 -4.253052388228562 1.8396843133253733 -4.226838906176368 1.85490504483955 -4.187095885000461 L 2.950797713860297 -1.1936853538789767 L 5.790309737449547 -1.1936853538789767 C 5.845273490139631 -1.1936853538789767 5.890935684682162 -1.148023159336446 5.890935684682162 -1.0930594066463621 C 5.8909356846821606 -1.0364044615658141 5.846119086334863 -0.990742267023283 5.789464141254314 -0.990742267023283 Z" fill="#8a615c" transform="matrix(1,0,0,1,0,0)" fill-rule="nonzero"></path></g><g clip-path="url(#SvgjsClipPath21945a8d24450-54ce-4ca2-82b5-ca7bc0ef7ae6)"><path d=" M 3.4547730462186035 -0.5408850911598284 C 3.4547730462186035 -0.38023367676564135 3.324539369452963 -0.25 3.163887955058776 -0.25 C 3.003236540664588 -0.25 2.873002863898948 -0.38023367676564135 2.873002863898948 -0.5408850911598284 C 2.873002863898948 -0.7015365055540155 3.003236540664588 -0.8317701823196564 3.163887955058776 -0.8317701823196564 C 3.324539369452963 -0.8317701823196564 3.4547730462186035 -0.7015365055540155 3.4547730462186035 -0.5408850911598284 Z" fill="#8a615c" transform="matrix(1,0,0,1,0,0)" fill-rule="nonzero"></path></g><g clip-path="url(#SvgjsClipPath21945a8d24450-54ce-4ca2-82b5-ca7bc0ef7ae6)"><path d=" M 5.324656063622582 -0.8283381610420655 C 5.483235074771082 -0.8026018044561174 5.590925302088591 -0.653184707102898 5.565188945502642 -0.4946056959543954 C 5.539452588916694 -0.33602668480589415 5.390035491563474 -0.2283364574883855 5.2314564804149715 -0.2540728140743349 C 5.072877469266469 -0.27980917066028343 4.965187241948962 -0.42922626801350283 4.990923598534909 -0.5878052791620045 C 5.0166599551208595 -0.7463842903105071 5.166077052474078 -0.8540745176280145 5.324656063622582 -0.8283381610420655 Z" fill="#8a615c" transform="matrix(1,0,0,1,0,0)" fill-rule="nonzero"></path></g><g clip-path="url(#SvgjsClipPath21945a8d24450-54ce-4ca2-82b5-ca7bc0ef7ae6)"><path d=" M 6.113327484028192 -1.7018886672134435 L 2.9871583502552754 -1.7018886672134435 C 2.9321945975651915 -1.7018886672134435 2.886532403022661 -1.747550861755975 2.886532403022661 -1.802514614446058 C 2.886532403022661 -1.857478367136142 2.9321945975651915 -1.9031405616786734 2.9871583502552754 -1.9031405616786734 L 6.0084735558194176 -1.9031405616786734 C 5.95604659171503 -2.6447284248971874 5.337070176805163 -3.2307265881930034 4.582798370658169 -3.2307265881930034 L 2.5127788847300914 -3.2307265881930034 C 2.4578151320400075 -3.2307265881930034 2.412152937497477 -3.276388782735535 2.412152937497477 -3.3313525354256184 C 2.412152937497477 -3.3863162881157023 2.4578151320400075 -3.4319784826582334 2.5127788847300914 -3.4319784826582334 L 4.582798370658169 -3.4319784826582334 C 5.481667126189846 -3.4319784826582334 6.213953431260807 -2.6996921775872718 6.213953431260807 -1.8008234220555939 C 6.213953431260807 -1.747550861755975 6.168291236718275 -1.7018886672134435 6.113327484028192 -1.7018886672134435 Z" fill="#8a615c" transform="matrix(1,0,0,1,0,0)" fill-rule="nonzero"></path></g><g clip-path="url(#SvgjsClipPath21945a8d24450-54ce-4ca2-82b5-ca7bc0ef7ae6)"><path d=" M 4.1371691757708735 -2.8620466470718267 L 2.3698731277358736 -2.8620466470718267 C 2.3301301065599667 -2.8620466470718267 2.2971518549459162 -2.895024898685877 2.2971518549459162 -2.934767919861784 C 2.2971518549459162 -2.9745109410376904 2.3301301065599658 -3.007489192651741 2.3698731277358736 -3.007489192651741 L 4.1371691757708735 -3.007489192651741 C 4.17691219694678 -3.007489192651741 4.209890448560831 -2.9745109410376904 4.209890448560831 -2.934767919861784 C 4.211581640951295 -2.8933337062954125 4.178603389337245 -2.8620466470718267 4.1371691757708735 -2.8620466470718267 Z" fill="#e9c3ad" transform="matrix(1,0,0,1,0,0)" fill-rule="nonzero"></path></g><g clip-path="url(#SvgjsClipPath21945a8d24450-54ce-4ca2-82b5-ca7bc0ef7ae6)"><path d=" M 4.839014017813481 -2.4781459744364724 L 3.7896291395304984 -2.4781459744364724 C 3.749886118354592 -2.4781459744364724 3.7169078667405415 -2.511124226050522 3.7169078667405415 -2.5508672472264293 C 3.7169078667405415 -2.5906102684023358 3.749886118354591 -2.623588520016386 3.7896291395304984 -2.623588520016386 L 4.839014017813481 -2.623588520016386 C 4.87875703898939 -2.623588520016386 4.911735290603438 -2.5906102684023367 4.911735290603438 -2.5508672472264293 C 4.91258088679867 -2.511124226050523 4.879602635184622 -2.4781459744364724 4.839014017813481 -2.4781459744364724 Z" fill="#e9c3ad" transform="matrix(1,0,0,1,0,0)" fill-rule="nonzero"></path></g><g clip-path="url(#SvgjsClipPath21945a8d24450-54ce-4ca2-82b5-ca7bc0ef7ae6)"><path d=" M 5.5586163799559625 -2.1297603420008646 L 3.2535211517533735 -2.1297603420008646 C 3.213778130577467 -2.1297603420008646 3.180799878963416 -2.162738593614915 3.180799878963416 -2.202481614790822 C 3.180799878963416 -2.242224635966729 3.2137781305774666 -2.275202887580779 3.2535211517533735 -2.275202887580779 L 5.5586163799559625 -2.275202887580779 C 5.598359401131869 -2.275202887580779 5.63133765274592 -2.2422246359667293 5.63133765274592 -2.202481614790822 C 5.632183248941152 -2.1627385936149155 5.599204997327101 -2.1297603420008646 5.5586163799559625 -2.1297603420008646 Z" fill="#e9c3ad" transform="matrix(1,0,0,1,0,0)" fill-rule="nonzero"></path></g><g clip-path="url(#SvgjsClipPath21945a8d24450-54ce-4ca2-82b5-ca7bc0ef7ae6)"><path d=" M 3.4945160673945104 -2.4781459744364724 L 2.057002535500012 -2.4781459744364724 C 2.017259514324105 -2.4781459744364724 1.9842812627100552 -2.511124226050522 1.9842812627100552 -2.5508672472264293 C 1.9842812627100552 -2.5906102684023358 2.017259514324105 -2.623588520016386 2.057002535500012 -2.623588520016386 L 3.495361663589742 -2.623588520016386 C 3.5351046847656487 -2.623588520016386 3.568082936379699 -2.5906102684023367 3.568082936379699 -2.5508672472264293 C 3.568082936379699 -2.511124226050523 3.5351046847656487 -2.4781459744364724 3.4945160673945104 -2.4781459744364724 Z" fill="#e9c3ad" transform="matrix(1,0,0,1,0,0)" fill-rule="nonzero"></path></g><g clip-path="url(#SvgjsClipPath21945a8d24450-54ce-4ca2-82b5-ca7bc0ef7ae6)"><path d=" M 1.0008528876551717 -4.078859572010757 L 0.5188630563728989 -4.078859572010757 C 0.4791200351969922 -4.078859572010757 0.44614178358294193 -4.111837823624808 0.44614178358294193 -4.151580844800715 C 0.44614178358294193 -4.191323865976622 0.4791200351969922 -4.224302117590671 0.5188630563728989 -4.224302117590671 L 1.0000072914599398 -4.224302117590671 C 1.0397503126358465 -4.224302117590671 1.0727285642498967 -4.191323865976622 1.0727285642498967 -4.151580844800715 C 1.0735741604451285 -4.11268341982004 1.0405959088310786 -4.078859572010757 1.0008528876551717 -4.078859572010757 Z" fill="#e9c3ad" transform="matrix(1,0,0,1,0,0)" fill-rule="nonzero"></path></g><g clip-path="url(#SvgjsClipPath21945a8d24450-54ce-4ca2-82b5-ca7bc0ef7ae6)"><path d=" M 4.877911442794156 -2.8620466470718267 L 4.396767207707116 -2.8620466470718267 C 4.357024186531209 -2.8620466470718267 4.324045934917159 -2.895024898685877 4.324045934917159 -2.934767919861784 C 4.324045934917159 -2.9745109410376904 4.357024186531209 -3.007489192651741 4.396767207707116 -3.007489192651741 L 4.877911442794156 -3.007489192651741 C 4.917654463970063 -3.007489192651741 4.950632715584113 -2.9745109410376904 4.950632715584113 -2.934767919861784 C 4.950632715584113 -2.8933337062954125 4.917654463970063 -2.8620466470718267 4.877911442794156 -2.8620466470718267 Z" fill="#e9c3ad" transform="matrix(1,0,0,1,0,0)" fill-rule="nonzero"></path></g><g clip-path="url(#SvgjsClipPath21945a8d24450-54ce-4ca2-82b5-ca7bc0ef7ae6)"><path d=" M 2.9871583502552754 -2.1297603420008646 L 2.6201696015245624 -2.1297603420008646 C 2.580426580348656 -2.1297603420008646 2.5474483287346055 -2.162738593614915 2.5474483287346055 -2.202481614790822 C 2.5474483287346055 -2.242224635966729 2.5804265803486555 -2.275202887580779 2.6201696015245624 -2.275202887580779 L 2.9871583502552754 -2.275202887580779 C 3.026901371431182 -2.275202887580779 3.0598796230452323 -2.2422246359667293 3.0598796230452323 -2.202481614790822 C 3.0615708154356964 -2.1627385936149155 3.028592563821647 -2.1297603420008646 2.9871583502552754 -2.1297603420008646 Z" fill="#e9c3ad" transform="matrix(1,0,0,1,0,0)" fill-rule="nonzero"></path></g><g clip-path="url(#SvgjsClipPath21945a8d24450-54ce-4ca2-82b5-ca7bc0ef7ae6)"><path d=" M 5.277878443138919 -2.4781459744364724 L 5.058869028573817 -2.4781459744364724 C 5.01912600739791 -2.4781459744364724 4.986147755783859 -2.511124226050522 4.986147755783859 -2.5508672472264293 C 4.986147755783859 -2.5906102684023358 5.01912600739791 -2.623588520016386 5.058869028573817 -2.623588520016386 L 5.277878443138919 -2.623588520016386 C 5.317621464314826 -2.623588520016386 5.350599715928876 -2.5906102684023367 5.350599715928876 -2.5508672472264293 C 5.350599715928876 -2.511124226050523 5.317621464314826 -2.4781459744364724 5.277878443138919 -2.4781459744364724 Z" fill="#e9c3ad" transform="matrix(1,0,0,1,0,0)" fill-rule="nonzero"></path></g><g clip-path="url(#SvgjsClipPath21945a8d24450-54ce-4ca2-82b5-ca7bc0ef7ae6)"><path d=" M 1.9504574149007727 -2.8620466470718267 L 1.5834686661700597 -2.8620466470718267 C 1.5437256449941532 -2.8620466470718267 1.5107473933801028 -2.895024898685877 1.5107473933801028 -2.934767919861784 C 1.5107473933801028 -2.9745109410376904 1.5437256449941532 -3.007489192651741 1.5834686661700597 -3.007489192651741 L 1.9504574149007727 -3.007489192651741 C 1.9902004360766794 -3.007489192651741 2.02317868769073 -2.9745109410376904 2.02317868769073 -2.934767919861784 C 2.02317868769073 -2.8933337062954125 1.9902004360766794 -2.8620466470718267 1.9504574149007727 -2.8620466470718267 Z" fill="#e9c3ad" transform="matrix(1,0,0,1,0,0)" fill-rule="nonzero"></path></g></g><g><path d=" M 0.0465 1.188 L 0.0465 0.9299999999999999 L 0.1875 0.9299999999999999 L 0.1875 0.28049999999999997 L 0.0465 0.28049999999999997 L 0.0465 0.022499999999999964 L 0.675 0.022499999999999964 L 0.9015 0.5834999999999999 L 1.125 0.022499999999999964 L 1.7115 0.022499999999999964 L 1.7115 0.28049999999999997 L 1.5705 0.28049999999999997 L 1.5705 0.9299999999999999 L 1.7115 0.9299999999999999 L 1.7115 1.188 L 1.101 1.188 L 1.101 0.9299999999999999 L 1.1955 0.9299999999999999 L 1.1955 0.4949999999999999 L 0.9375 1.188 L 0.726 1.188 L 0.4215 0.4784999999999999 L 0.4215 0.9299999999999999 L 0.5385 0.9299999999999999 L 0.5385 1.188 L 0.0465 1.188 M 2.078280029296875 1.14075 Q 1.944030029296875 1.0725 1.863780029296875 0.9352499999999999 Q 1.783530029296875 0.7979999999999999 1.783530029296875 0.5984999999999999 Q 1.783530029296875 0.4304999999999999 1.844280029296875 0.29474999999999996 Q 1.905030029296875 0.15900000000000003 2.022780029296875 0.0794999999999999 Q 2.140530029296875 0 2.3070300292968753 0 Q 2.392530029296875 0 2.460030029296875 0.03974999999999995 Q 2.5275300292968748 0.0794999999999999 2.557530029296875 0.14100000000000001 L 2.5875300292968753 0.022499999999999964 L 2.815530029296875 0.022499999999999964 L 2.815530029296875 0.5009999999999999 L 2.581530029296875 0.5009999999999999 L 2.581530029296875 0.477 Q 2.581530029296875 0.3839999999999999 2.538780029296875 0.32474999999999987 Q 2.496030029296875 0.26549999999999996 2.412030029296875 0.26549999999999996 Q 2.355030029296875 0.26549999999999996 2.307780029296875 0.30899999999999994 Q 2.260530029296875 0.3524999999999999 2.233530029296875 0.42299999999999993 Q 2.206530029296875 0.49349999999999994 2.206530029296875 0.5684999999999999 Q 2.206530029296875 0.7154999999999999 2.280030029296875 0.79875 Q 2.3535300292968753 0.8819999999999999 2.4810300292968748 0.8819999999999999 Q 2.571030029296875 0.8819999999999999 2.648280029296875 0.8519999999999999 Q 2.725530029296875 0.822 2.7750300292968753 0.7874999999999999 L 2.791530029296875 0.8009999999999999 L 2.791530029296875 1.113 Q 2.698530029296875 1.167 2.595030029296875 1.188 Q 2.491530029296875 1.2089999999999999 2.374530029296875 1.2089999999999999 Q 2.2125300292968753 1.2089999999999999 2.078280029296875 1.14075 M 2.893537353515625 1.188 L 2.893537353515625 0.9299999999999999 L 3.009037353515625 0.9299999999999999 L 3.210037353515625 0.28049999999999997 L 3.057037353515625 0.28049999999999997 L 3.057037353515625 0.022499999999999964 L 3.783037353515625 0.022499999999999964 L 4.042537353515625 0.9299999999999999 L 4.158037353515625 0.9299999999999999 L 4.158037353515625 1.188 L 3.502537353515625 1.188 L 3.502537353515625 0.9299999999999999 L 3.597037353515625 0.9299999999999999 L 3.565537353515625 0.8054999999999999 L 3.301537353515625 0.8054999999999999 L 3.268537353515625 0.9299999999999999 L 3.408037353515625 0.9299999999999999 L 3.408037353515625 1.188 L 2.893537353515625 1.188 M 3.339037353515625 0.6285 L 3.531037353515625 0.6285 L 3.445537353515625 0.27149999999999996 L 3.339037353515625 0.6285 M 4.252550537109375 0.9299999999999999 L 4.369550537109375 0.9299999999999999 L 4.369550537109375 0.28049999999999997 L 4.252550537109375 0.28049999999999997 L 4.252550537109375 0.022499999999999964 L 5.001050537109375 0.022499999999999964 Q 5.182550537109375 0.022499999999999964 5.268050537109375 0.09599999999999986 Q 5.353550537109375 0.16949999999999998 5.353550537109375 0.33899999999999997 Q 5.353550537109375 0.45299999999999996 5.289800537109375 0.5145 Q 5.226050537109375 0.576 5.1090505371093755 0.597 Q 5.214050537109375 0.6134999999999999 5.260550537109375 0.67575 Q 5.307050537109375 0.738 5.307050537109375 0.831 L 5.307050537109375 0.9255 L 5.470550537109375 0.9255 L 5.470550537109375 1.188 L 5.235050537109375 1.188 Q 5.121050537109375 1.188 5.071550537109375 1.173 Q 5.022050537109375 1.158 4.995800537109375 1.0905 Q 4.969550537109375 1.023 4.969550537109375 0.8654999999999999 Q 4.969550537109375 0.7754999999999999 4.940300537109375 0.732 Q 4.911050537109375 0.6884999999999999 4.833050537109375 0.6884999999999999 L 4.744550537109375 0.6884999999999999 L 4.744550537109375 0.9299999999999999 L 4.861550537109375 0.9299999999999999 L 4.861550537109375 1.188 L 4.252550537109375 1.188 L 4.252550537109375 0.9299999999999999 M 4.845050537109375 0.5219999999999999 Q 4.924550537109375 0.5219999999999999 4.963550537109375 0.49349999999999994 Q 5.002550537109375 0.46499999999999997 5.002550537109375 0.3929999999999999 Q 5.002550537109375 0.3404999999999999 4.962800537109375 0.3104999999999999 Q 4.923050537109375 0.28049999999999997 4.860050537109375 0.28049999999999997 L 4.744550537109375 0.28049999999999997 L 4.744550537109375 0.5219999999999999 L 4.845050537109375 0.5219999999999999 M 5.728578369140625 1.188 L 5.728578369140625 0.9239999999999999 L 5.8485783691406255 0.9239999999999999 L 5.8485783691406255 0.28049999999999997 L 5.745078369140625 0.28049999999999997 L 5.713578369140625 0.48149999999999993 L 5.508078369140625 0.48149999999999993 L 5.508078369140625 0.022499999999999964 L 6.604578369140625 0.022499999999999964 L 6.604578369140625 0.48149999999999993 L 6.399078369140625 0.48149999999999993 L 6.367578369140625 0.28049999999999997 L 6.261078369140625 0.28049999999999997 L 6.261078369140625 0.9239999999999999 L 6.381078369140625 0.9239999999999999 L 6.381078369140625 1.188 L 5.728578369140625 1.188" fill="#8a615c" fill-rule="nonzero"></path></g><g></g></g><defs><clipPath id="SvgjsClipPath21947"><path d=" M 0.446141783582942 -4.253052388228562 h 5.767811647677866 v 4.003052388228562 h -5.767811647677866 Z"></path></clipPath><clipPath id="SvgjsClipPath21945a8d24450-54ce-4ca2-82b5-ca7bc0ef7ae6"><path d=" M 0.446141783582942 -4.253052388228562 L 6.2139534312608085 -4.253052388228562 L 6.2139534312608085 -0.25 L 0.446141783582942 -0.25 Z"></path></clipPath></defs></svg>